M48
; DRILL file KiCad 10.0.3 date 2026-07-06T14:56:45
; FORMAT={-:-/ absolute / metric / decimal}
; #@! TF.CreationDate,2026-07-06T14:56:45-04:00
; #@! TF.GenerationSoftware,Kicad,Pcbnew,10.0.3
; #@! TF.FileFunction,Plated,1,2,PTH
FMAT,2
METRIC
; #@! TA.AperFunction,Plated,PTH,ViaDrill
T1C0.300
; #@! TA.AperFunction,Plated,PTH,ComponentDrill
T2C0.750
; #@! TA.AperFunction,Plated,PTH,ComponentDrill
T3C0.800
; #@! TA.AperFunction,Plated,PTH,ComponentDrill
T4C0.900
; #@! TA.AperFunction,Plated,PTH,ComponentDrill
T5C1.000
; #@! TA.AperFunction,Plated,PTH,ComponentDrill
T6C1.500
; #@! TA.AperFunction,Plated,PTH,ComponentDrill
T7C1.524
%
G90
G05
T1
X67.5Y-39.0
X70.5Y-36.21
X71.5Y-49.5
X73.5Y-50.0
X82.5Y-71.5
X95.0Y-71.5
T2
X73.73Y-37.86
X75.0Y-37.86
X76.27Y-37.86
T3
X71.19Y-43.5
X71.19Y-47.5
X71.2Y-56.5
X78.8Y-56.5
X78.81Y-43.5
X78.81Y-47.5
T4
X92.2Y-39.24
X92.2Y-62.1
X94.74Y-39.24
X94.74Y-62.1
X97.28Y-39.24
X97.28Y-62.1
X99.82Y-39.24
X99.82Y-62.1
X102.36Y-39.24
X102.36Y-62.1
X104.9Y-39.24
X104.9Y-62.1
X107.44Y-39.24
X107.44Y-62.1
X109.98Y-39.24
X109.98Y-62.1
T5
X63.0Y-40.11
X63.0Y-42.65
X63.0Y-45.19
X63.0Y-47.73
X63.0Y-50.27
X63.0Y-52.81
X63.0Y-55.35
X63.0Y-57.89
X108.1Y-72.3
X108.1Y-74.8
X108.1Y-77.3
X122.6Y-72.3
X122.6Y-77.3
T7
X49.74Y-72.16
X56.09Y-69.62
X68.79Y-72.16
X75.14Y-69.62
X87.84Y-72.16
X94.19Y-69.62
T6
G00X114.95Y-69.2
M15
G01X116.25Y-69.2
M16
G05
G00X114.95Y-80.4
M15
G01X116.25Y-80.4
M16
G05
M30
