%TF.GenerationSoftware,KiCad,Pcbnew,10.0.3*%
%TF.CreationDate,2026-07-06T14:56:39-04:00*%
%TF.ProjectId,Icicle-Alarm-Clock,49636963-6c65-42d4-916c-61726d2d436c,rev?*%
%TF.SameCoordinates,Original*%
%TF.FileFunction,Copper,L1,Top*%
%TF.FilePolarity,Positive*%
%FSLAX46Y46*%
G04 Gerber Fmt 4.6, Leading zero omitted, Abs format (unit mm)*
G04 Created by KiCad (PCBNEW 10.0.3) date 2026-07-06 14:56:39*
%MOMM*%
%LPD*%
G01*
G04 APERTURE LIST*
%TA.AperFunction,ComponentPad*%
%ADD10C,1.600000*%
%TD*%
%TA.AperFunction,ComponentPad*%
%ADD11R,2.000000X2.000000*%
%TD*%
%TA.AperFunction,ComponentPad*%
%ADD12O,1.600000X2.000000*%
%TD*%
%TA.AperFunction,ComponentPad*%
%ADD13R,1.700000X1.700000*%
%TD*%
%TA.AperFunction,ComponentPad*%
%ADD14C,1.700000*%
%TD*%
%TA.AperFunction,ComponentPad*%
%ADD15C,2.000000*%
%TD*%
%TA.AperFunction,ComponentPad*%
%ADD16R,3.200000X2.000000*%
%TD*%
%TA.AperFunction,ComponentPad*%
%ADD17C,2.300000*%
%TD*%
%TA.AperFunction,ComponentPad*%
%ADD18R,1.600000X1.600000*%
%TD*%
%TA.AperFunction,ComponentPad*%
%ADD19R,1.050000X1.500000*%
%TD*%
%TA.AperFunction,ComponentPad*%
%ADD20O,1.050000X1.500000*%
%TD*%
%TA.AperFunction,ViaPad*%
%ADD21C,0.600000*%
%TD*%
%TA.AperFunction,Conductor*%
%ADD22C,0.200000*%
%TD*%
G04 APERTURE END LIST*
D10*
%TO.P,R1,1*%
%TO.N,/BZ1*%
X71190000Y-47500000D03*
%TO.P,R1,2*%
%TO.N,Net-(Q1-B)*%
X78810000Y-47500000D03*
%TD*%
D11*
%TO.P,U2,1,EN_1*%
%TO.N,unconnected-(U2-EN-Pad1)*%
X92200000Y-62100000D03*
D12*
%TO.P,U2,2,D3_2*%
%TO.N,/B*%
X94740000Y-62100000D03*
%TO.P,U2,3,D2_3*%
%TO.N,/SWRT1*%
X97280000Y-62100000D03*
%TO.P,U2,4,D1_4*%
%TO.N,/A*%
X99820000Y-62100000D03*
%TO.P,U2,5,D0_5*%
%TO.N,/BZ1*%
X102360000Y-62100000D03*
%TO.P,U2,6,D4_6*%
%TO.N,/SW2*%
X104900000Y-62100000D03*
%TO.P,U2,7,D5_7*%
%TO.N,/SW3*%
X107440000Y-62100000D03*
%TO.P,U2,8,3V3_8*%
%TO.N,/3.3V*%
X109980000Y-62100000D03*
%TO.P,U2,9,VBus_9*%
%TO.N,unconnected-(U2-VBus-Pad9)*%
X109980000Y-39240000D03*
%TO.P,U2,10,GND_10*%
%TO.N,/GND*%
X107440000Y-39240000D03*
%TO.P,U2,11,D6_11*%
%TO.N,/SW4*%
X104900000Y-39240000D03*
%TO.P,U2,12,D7_12*%
%TO.N,/CS*%
X102360000Y-39240000D03*
%TO.P,U2,13,D8_13*%
%TO.N,/DC*%
X99820000Y-39240000D03*
%TO.P,U2,14,D10_14*%
%TO.N,/RST*%
X97280000Y-39240000D03*
%TO.P,U2,15,RX_15*%
%TO.N,/SDA*%
X94740000Y-39240000D03*
%TO.P,U2,16,TX_16*%
%TO.N,/SCL*%
X92200000Y-39240000D03*
%TD*%
D13*
%TO.P,J1,1,Pin_1_1*%
%TO.N,/GND*%
X63000000Y-40110000D03*
D14*
%TO.P,J1,2,Pin_2_2*%
%TO.N,/3.3V*%
X63000000Y-42650000D03*
%TO.P,J1,3,Pin_3_3*%
%TO.N,/SCL*%
X63000000Y-45190000D03*
%TO.P,J1,4,Pin_4_4*%
%TO.N,/SDA*%
X63000000Y-47730000D03*
%TO.P,J1,5,Pin_5_5*%
%TO.N,/RST*%
X63000000Y-50270000D03*
%TO.P,J1,6,Pin_6_6*%
%TO.N,/DC*%
X63000000Y-52810000D03*
%TO.P,J1,7,Pin_7_7*%
%TO.N,/CS*%
X63000000Y-55350000D03*
%TO.P,J1,8,Pin_8_8*%
%TO.N,/3.3V*%
X63000000Y-57890000D03*
%TD*%
D11*
%TO.P,SW1,A,A_A*%
%TO.N,/A*%
X108100000Y-72300000D03*
D15*
%TO.P,SW1,B,B_B*%
%TO.N,/B*%
X108100000Y-77300000D03*
%TO.P,SW1,C,C_C*%
%TO.N,/GND*%
X108100000Y-74800000D03*
D16*
%TO.P,SW1,MP*%
%TO.N,N/C*%
X115600000Y-69200000D03*
X115600000Y-80400000D03*
D15*
%TO.P,SW1,S1,S1_S1*%
%TO.N,/SWRT1*%
X122600000Y-77300000D03*
%TO.P,SW1,S2,S2_S2*%
%TO.N,/GND*%
X122600000Y-72300000D03*
%TD*%
D17*
%TO.P,SW4,1,1_1*%
%TO.N,/SW4*%
X49740000Y-72160000D03*
%TO.P,SW4,2,2_2*%
%TO.N,/GND*%
X56090000Y-69620000D03*
%TD*%
D18*
%TO.P,BZ1,1,+_1*%
%TO.N,/3.3V*%
X71200000Y-56500000D03*
D10*
%TO.P,BZ1,2,-_2*%
%TO.N,Net-(BZ1--)*%
X78800000Y-56500000D03*
%TD*%
%TO.P,R2,1*%
%TO.N,/BZ1*%
X71190000Y-43500000D03*
%TO.P,R2,2*%
%TO.N,/GND*%
X78810000Y-43500000D03*
%TD*%
D17*
%TO.P,SW2,1,1_1*%
%TO.N,/SW2*%
X68790000Y-72160000D03*
%TO.P,SW2,2,2_2*%
%TO.N,/GND*%
X75140000Y-69620000D03*
%TD*%
%TO.P,SW3,1,1_1*%
%TO.N,/SW3*%
X87840000Y-72160000D03*
%TO.P,SW3,2,2_2*%
%TO.N,/GND*%
X94190000Y-69620000D03*
%TD*%
D19*
%TO.P,Q1,1,E_1*%
%TO.N,/GND*%
X73730000Y-37860000D03*
D20*
%TO.P,Q1,2,B_2*%
%TO.N,Net-(Q1-B)*%
X75000000Y-37860000D03*
%TO.P,Q1,3,C_3*%
%TO.N,Net-(BZ1--)*%
X76270000Y-37860000D03*
%TD*%
D21*
%TO.N,/3.3V*%
X71500000Y-49500000D03*
%TO.N,Net-(BZ1--)*%
X67500000Y-39000000D03*
%TO.N,Net-(Q1-B)*%
X70500000Y-36210000D03*
%TO.N,/BZ1*%
X73500000Y-50000000D03*
%TO.N,/SW2*%
X82500000Y-71500000D03*
%TO.N,/SW3*%
X95000000Y-71500000D03*
%TD*%
%TO.N,/3.3V*%
D22*
X63000000Y-57890000D02*
X64390000Y-56500000D01*
X71200000Y-49800000D02*
X71500000Y-49500000D01*
X64500000Y-56390000D02*
X63000000Y-57890000D01*
X64500000Y-44150000D02*
X64500000Y-56390000D01*
X64390000Y-56500000D02*
X71200000Y-56500000D01*
X63000000Y-42650000D02*
X64500000Y-44150000D01*
X71200000Y-56500000D02*
X71200000Y-49800000D01*
%TO.N,Net-(BZ1--)*%
X75445000Y-36810000D02*
X69690000Y-36810000D01*
X76270000Y-37860000D02*
X76270000Y-37635000D01*
X76270000Y-37635000D02*
X75445000Y-36810000D01*
X69690000Y-36810000D02*
X67500000Y-39000000D01*
%TO.N,/GND*%
X121000000Y-38000000D02*
X119000000Y-36000000D01*
X71480000Y-40110000D02*
X73730000Y-37860000D01*
X108100000Y-74800000D02*
X112200000Y-70700000D01*
X75140000Y-47170000D02*
X75140000Y-69620000D01*
X73730000Y-38420000D02*
X78810000Y-43500000D01*
X110680000Y-36000000D02*
X107440000Y-39240000D01*
X78810000Y-43500000D02*
X75140000Y-47170000D01*
X75140000Y-69620000D02*
X94190000Y-69620000D01*
X56090000Y-69620000D02*
X75140000Y-69620000D01*
X103180000Y-43500000D02*
X107440000Y-39240000D01*
X119000000Y-36000000D02*
X110680000Y-36000000D01*
X63000000Y-40110000D02*
X71480000Y-40110000D01*
X112200000Y-70700000D02*
X121000000Y-70700000D01*
X121000000Y-70700000D02*
X121000000Y-38000000D01*
X78810000Y-43500000D02*
X103180000Y-43500000D01*
X73730000Y-37860000D02*
X73730000Y-38420000D01*
X122600000Y-72300000D02*
X121000000Y-70700000D01*
%TO.N,Net-(Q1-B)*%
X77095000Y-37293274D02*
X76011726Y-36210000D01*
X75928274Y-38910000D02*
X76611726Y-38910000D01*
X76011726Y-36210000D02*
X70500000Y-36210000D01*
X75000000Y-37860000D02*
X75000000Y-37981726D01*
X76611726Y-38910000D02*
X77095000Y-38426726D01*
X77095000Y-38426726D02*
X77095000Y-37293274D01*
X75000000Y-37981726D02*
X75928274Y-38910000D01*
%TO.N,/BZ1*%
X71190000Y-43500000D02*
X71190000Y-47500000D01*
X73500000Y-49810000D02*
X73500000Y-50000000D01*
X71190000Y-47500000D02*
X73500000Y-49810000D01*
%TO.N,/A*%
X108100000Y-72300000D02*
X108100000Y-70380000D01*
X108100000Y-70380000D02*
X99820000Y-62100000D01*
%TO.N,/B*%
X94740000Y-63940000D02*
X94740000Y-62100000D01*
X108100000Y-77300000D02*
X94740000Y-63940000D01*
%TO.N,/SW2*%
X69450000Y-71500000D02*
X82500000Y-71500000D01*
X68790000Y-72160000D02*
X69450000Y-71500000D01*
%TO.N,/SW3*%
X87840000Y-72160000D02*
X94340000Y-72160000D01*
X94340000Y-72160000D02*
X95000000Y-71500000D01*
%TO.N,/RST*%
X54815686Y-42085686D02*
X54815686Y-36315686D01*
X63000000Y-50270000D02*
X54815686Y-42085686D01*
X92799344Y-34759344D02*
X97280000Y-39240000D01*
X56372028Y-34759344D02*
X92799344Y-34759344D01*
X54815686Y-36315686D02*
X56372028Y-34759344D01*
%TO.N,/DC*%
X95000000Y-34420000D02*
X99820000Y-39240000D01*
X54400000Y-44210000D02*
X54400000Y-36165686D01*
X56206342Y-34359344D02*
X95000000Y-34359344D01*
X63000000Y-52810000D02*
X54400000Y-44210000D01*
X95000000Y-34359344D02*
X95000000Y-34420000D01*
X54400000Y-36165686D02*
X56206342Y-34359344D01*
%TO.N,/SCL*%
X56703400Y-35559344D02*
X88519344Y-35559344D01*
X55615686Y-37805686D02*
X55615686Y-36647058D01*
X63000000Y-45190000D02*
X55615686Y-37805686D01*
X88519344Y-35559344D02*
X92200000Y-39240000D01*
X55615686Y-36647058D02*
X56703400Y-35559344D01*
%TO.N,/CS*%
X63000000Y-55350000D02*
X54000000Y-46350000D01*
X56040656Y-33959344D02*
X97079344Y-33959344D01*
X54000000Y-36000000D02*
X56040656Y-33959344D01*
X54000000Y-46350000D02*
X54000000Y-36000000D01*
X97079344Y-33959344D02*
X102360000Y-39240000D01*
%TO.N,/SDA*%
X56537714Y-35159344D02*
X90659344Y-35159344D01*
X90659344Y-35159344D02*
X94740000Y-39240000D01*
X55215686Y-39945686D02*
X55215686Y-36481372D01*
X63000000Y-47730000D02*
X55215686Y-39945686D01*
X55215686Y-36481372D02*
X56537714Y-35159344D01*
%TO.N,/SW4*%
X53500000Y-68400000D02*
X49740000Y-72160000D01*
X99219344Y-33559344D02*
X55874970Y-33559344D01*
X55874970Y-33559344D02*
X53500000Y-35934314D01*
X53500000Y-35934314D02*
X53500000Y-68400000D01*
X104900000Y-39240000D02*
X99219344Y-33559344D01*
%TO.N,/SWRT1*%
X89500000Y-61000000D02*
X90500000Y-60000000D01*
X89500000Y-63500000D02*
X89500000Y-61000000D01*
X122600000Y-77300000D02*
X121300000Y-78600000D01*
X90500000Y-60000000D02*
X95180000Y-60000000D01*
X106600000Y-78600000D02*
X93500000Y-65500000D01*
X95180000Y-60000000D02*
X97280000Y-62100000D01*
X91500000Y-65500000D02*
X89500000Y-63500000D01*
X121300000Y-78600000D02*
X106600000Y-78600000D01*
X93500000Y-65500000D02*
X91500000Y-65500000D01*
%TD*%
M02*
