%TF.GenerationSoftware,KiCad,Pcbnew,10.0.3*%
%TF.CreationDate,2026-07-06T14:56:39-04:00*%
%TF.ProjectId,Icicle-Alarm-Clock,49636963-6c65-42d4-916c-61726d2d436c,rev?*%
%TF.SameCoordinates,Original*%
%TF.FileFunction,Soldermask,Top*%
%TF.FilePolarity,Negative*%
%FSLAX46Y46*%
G04 Gerber Fmt 4.6, Leading zero omitted, Abs format (unit mm)*
G04 Created by KiCad (PCBNEW 10.0.3) date 2026-07-06 14:56:39*
%MOMM*%
%LPD*%
G01*
G04 APERTURE LIST*
%ADD10C,1.600000*%
%ADD11C,3.000000*%
%ADD12R,2.000000X2.000000*%
%ADD13O,1.600000X2.000000*%
%ADD14R,1.700000X1.700000*%
%ADD15C,1.700000*%
%ADD16C,2.000000*%
%ADD17R,3.200000X2.000000*%
%ADD18C,3.200000*%
%ADD19C,1.750000*%
%ADD20C,3.987800*%
%ADD21R,1.600000X1.600000*%
%ADD22R,1.050000X1.500000*%
%ADD23O,1.050000X1.500000*%
G04 APERTURE END LIST*
D10*
%TO.C,R1*%
X71190000Y-47500000D03*
X78810000Y-47500000D03*
%TD*%
D11*
%TO.C,U2*%
X87800000Y-60850000D03*
X87800000Y-40450000D03*
D12*
X92200000Y-62100000D03*
D13*
X94740000Y-62100000D03*
X97280000Y-62100000D03*
X99820000Y-62100000D03*
X102360000Y-62100000D03*
X104900000Y-62100000D03*
X107440000Y-62100000D03*
X109980000Y-62100000D03*
X109980000Y-39240000D03*
X107440000Y-39240000D03*
X104900000Y-39240000D03*
X102360000Y-39240000D03*
X99820000Y-39240000D03*
X97280000Y-39240000D03*
X94740000Y-39240000D03*
X92200000Y-39240000D03*
%TD*%
D14*
%TO.C,J1*%
X63000000Y-40110000D03*
D15*
X63000000Y-42650000D03*
X63000000Y-45190000D03*
X63000000Y-47730000D03*
X63000000Y-50270000D03*
X63000000Y-52810000D03*
X63000000Y-55350000D03*
X63000000Y-57890000D03*
%TD*%
D12*
%TO.C,SW1*%
X108100000Y-72300000D03*
D16*
X108100000Y-77300000D03*
X108100000Y-74800000D03*
D17*
X115600000Y-69200000D03*
X115600000Y-80400000D03*
D16*
X122600000Y-77300000D03*
X122600000Y-72300000D03*
%TD*%
D18*
%TO.C,H4*%
X50250000Y-90100000D03*
%TD*%
%TO.C,H1*%
X50250000Y-38600000D03*
%TD*%
D19*
%TO.C,SW4*%
X48470000Y-74700000D03*
D20*
X53550000Y-74700000D03*
D19*
X58630000Y-74700000D03*
%TD*%
D21*
%TO.C,BZ1*%
X71200000Y-56500000D03*
D10*
X78800000Y-56500000D03*
%TD*%
D18*
%TO.C,H2*%
X84200000Y-90100000D03*
%TD*%
D10*
%TO.C,R2*%
X71190000Y-43500000D03*
X78810000Y-43500000D03*
%TD*%
D18*
%TO.C,H3*%
X118150000Y-90100000D03*
%TD*%
D19*
%TO.C,SW2*%
X67520000Y-74700000D03*
D20*
X72600000Y-74700000D03*
D19*
X77680000Y-74700000D03*
%TD*%
%TO.C,SW3*%
X86570000Y-74700000D03*
D20*
X91650000Y-74700000D03*
D19*
X96730000Y-74700000D03*
%TD*%
D22*
%TO.C,Q1*%
X73730000Y-37860000D03*
D23*
X75000000Y-37860000D03*
X76270000Y-37860000D03*
%TD*%
M02*
